<svg width="218" height="24" viewBox="0 0 218 24" fill="none" xmlns="http://www.w3.org/2000/svg">
<path fill-rule="evenodd" clip-rule="evenodd" d="M60.7783 0L62 0.6984V2.08545L49.7294 9.06404L49.625 9.005V22.3336L48.506 23L47.375 22.318V8.997L47.2574 9.06404L35 2.1051V0.693406L36.2217 0L48.5 6.96868V6.97967L60.7783 0Z" fill="#FBC753"/>
<path fill-rule="evenodd" clip-rule="evenodd" d="M110.218 0L122.5 6.96868V7.091L134.78 0.113301L136 0.811701V2.19876L123.733 9.17734L123.625 9.116V22.3336L122.502 23L121.375 22.318V8.999L121.261 9.06404L109 2.1051V0.693406L110.218 0Z" fill="#92C74C"/>
<path fill-rule="evenodd" clip-rule="evenodd" d="M216.778 0L218 0.697838V2.09243L205.729 9.10891L205.625 9.049V22.3303L204.506 23L203.375 22.3136V9.04L203.257 9.10891L191 2.11443V0.696839L192.222 0L204.5 7.00209V7.01213L216.778 0Z" fill="#EE5A85"/>
<path fill-rule="evenodd" clip-rule="evenodd" d="M184.415 5.05836L189.777 16.291H178.998L184.415 5.05836ZM193.35 23.8074L195.051 23.9424L196 22.6014L185.384 0.326616H183.461L172.799 22.6014L173.74 23.9424L175.436 23.8074L177.834 18.8307H190.961L193.35 23.8074ZM70.3669 5.05836L75.7333 16.291H64.9542L70.3669 5.05836ZM79.3153 23.8074L81.0073 23.9424L81.9566 22.6014L71.3451 0.326616H69.4263L58.76 22.6014L59.7049 23.9424L61.397 23.8074L63.7825 18.8307H76.9223L79.3153 23.8074ZM26.9677 5.05836L32.3298 16.291H21.5507L26.9677 5.05836ZM35.9118 23.8074L37.6124 23.9424L38.5574 22.6014L27.9416 0.326616H26.0271L15.3522 22.6014L16.3014 23.9424L17.9978 23.8074L20.3876 18.8307H33.5188L35.9118 23.8074ZM88.3099 0.278461H86.148V23.2683L87.6219 24L89.0871 23.2683V6.06438L103.084 23.9225H105.25V1.05522L103.756 0.278461L102.306 1.05522V18.0989L88.3099 0.278461ZM175.029 1.64774L174.211 0.294164L172.387 0.375818L163.573 19.0191L154.658 0.433394L152.878 0.294164L151.929 1.64774L155.326 8.76315L150.384 19.1583L141.359 0.40513L139.571 0.294164L138.597 1.64774L149.355 23.9225H151.215L156.872 11.9613L162.617 23.9225H164.518L175.029 1.64774ZM2.94338 2.64957H6.08025C8.00774 2.64957 9.45256 3.10809 10.4523 4.08479C11.3091 4.92332 11.7499 6.11777 11.7499 7.59801C11.7499 9.28239 11.1403 10.5543 10.0911 11.397C9.05803 12.202 7.67234 12.5789 6.08025 12.5789C4.53116 12.5789 3.56043 12.5046 2.94338 12.4146V2.64957ZM6.08025 15.151C8.54955 15.151 10.8673 14.3941 12.4755 13.0165C13.9751 11.7153 14.8943 9.87176 14.8943 7.59801C14.8943 5.3609 14.1385 3.6022 12.8872 2.32714C11.3671 0.780947 9.05803 0 6.08025 0H0V23.1856L1.47384 24L2.94338 23.1856V15.0202C3.56043 15.0976 4.86657 15.151 6.08025 15.151Z" fill="#111111"/>
</svg>
